<?xml version="1.0" standalone="no"?>
<!DOCTYPE svg PUBLIC "-//W3C//DTD SVG 20010904//EN"
 "http://www.w3.org/TR/2001/REC-SVG-20010904/DTD/svg10.dtd">
<svg version="1.0" xmlns="http://www.w3.org/2000/svg"
 width="512.000000pt" height="512.000000pt" viewBox="0 0 512.000000 512.000000"
 preserveAspectRatio="xMidYMid meet">

<g transform="translate(0.000000,512.000000) scale(0.100000,-0.100000)"
fill="#000000" stroke="none">
<path d="M2084 3861 c-21 -16 -108 -99 -193 -184 l-153 -154 -81 78 c-73 72
-84 79 -121 79 -57 0 -96 -39 -96 -95 0 -38 6 -46 130 -170 184 -183 149 -191
440 101 199 198 231 235 237 267 5 32 2 40 -30 72 -44 44 -80 46 -133 6z"/>
<path d="M2495 3656 c-32 -32 -40 -69 -25 -107 26 -61 2 -59 601 -59 l547 0
31 26 c42 35 44 95 4 136 l-27 28 -553 0 -554 0 -24 -24z"/>
<path d="M1923 2678 l-183 -182 -78 76 c-84 83 -115 97 -163 78 -40 -17 -59
-47 -59 -94 0 -38 7 -47 128 -168 125 -125 129 -128 172 -128 l44 0 222 222
c123 122 228 234 235 250 25 62 -22 128 -92 128 -42 0 -46 -3 -226 -182z"/>
<path d="M2494 2626 c-46 -46 -46 -86 0 -132 l34 -34 536 0 c574 0 579 0 606
49 13 25 13 77 0 102 -27 49 -32 49 -606 49 l-536 0 -34 -34z"/>
<path d="M2120 1833 c-8 -3 -97 -87 -197 -186 l-182 -181 -84 82 c-74 71 -89
82 -120 82 -24 0 -46 -9 -66 -26 -26 -22 -31 -33 -31 -72 0 -45 2 -47 123
-168 123 -123 153 -142 202 -130 30 8 462 438 476 474 13 34 3 75 -24 101 -24
22 -72 34 -97 24z"/>
<path d="M2524 1420 c-32 -13 -64 -59 -64 -92 0 -21 11 -41 34 -64 l34 -34
552 2 552 3 24 28 c26 30 32 83 14 118 -27 49 -32 49 -597 48 -290 0 -538 -4
-549 -9z"/>
</g>
</svg>
